<svg enable-background="new 0 0 5669.3 5669.3" viewBox="0 0 5669.3 5669.3" xmlns="http://www.w3.org/2000/svg" xmlns:xlink="http://www.w3.org/1999/xlink"><clipPath id="a"><path d="m0 0h5669.3v5669.3h-5669.3z"/></clipPath><path d="m0 0h5669.3v5669.3h-5669.3z" fill="#fff"/><g fill="#e3000f"><path d="m216 5453.3h5237.3v-5237.3h-5237.3zm5021.3-216h-4805.3v-4805.3h4805.3z"/><path d="m1864.8 2271.2h957.8v957.8h-957.8z"/><path d="m2966.6 2270.6v958.3h958.3z"/><path d="m1864.8 1169.4h957.8v957.8h-957.8z"/><path d="m2966.6 1169.4v958.3l958.3-958.3z"/><path d="m1415.5 3795.2h-176.7l-228.3 318.6v-318.6h-155.8v694.8h155.8v-312.7l228.3 312.7h180.7l-268-355.4z"/><path clip-path="url(#a)" d="m2315.5 4331.2c-17.9 22.8-49.6 52.6-99.3 52.6-56.6 0-90.3-36.7-90.3-97.3v-259.1h-136v285.9c0 109.2 62.5 186.6 177.7 186.6 76.4 0 124.1-39.7 147.9-65.5v55.6h134v-462.5h-134z"/><path clip-path="url(#a)" d="m3548.7 4076.1c-27.8-26.8-75.4-58.6-141.9-58.6-129 0-218.4 107.2-218.4 243.2 0 134 88.3 239.2 218.4 239.2 70.5 0 117.1-32.8 141.9-57.6v47.6h134v-462.5h-134zm0 266c-18.9 20.8-50.6 43.7-98.3 43.7-71.5 0-122.1-51.6-122.1-127s50.6-127 122.1-127c47.6 0 79.4 22.8 98.3 43.7z"/><path clip-path="url(#a)" d="m1760.2 4076.1c-27.8-26.8-75.4-58.6-141.9-58.6-129 0-218.4 107.2-218.4 243.2 0 134 88.3 239.2 218.4 239.2 70.5 0 117.1-32.8 141.9-57.6v47.6h134v-462.5h-134zm0 266c-18.9 20.8-50.6 43.7-98.3 43.7-71.5 0-122.1-51.6-122.1-127s50.6-127 122.1-127c47.6 0 79.4 22.8 98.3 43.7z"/><path clip-path="url(#a)" d="m4680.6 3795.2v284.8c-23.8-24.8-72.5-62.5-146.9-62.5-130 0-218.4 107.2-218.4 243.2s90.3 239.2 218.4 239.2c74.4 0 123.1-36.7 146.9-62.5v52.6h134v-694.8zm0 540.9c-17.9 22.8-51.6 49.6-103.2 49.6-71.5 0-122.1-51.6-122.1-127.1 0-75.4 50.6-127 122.1-127 51.6 0 85.4 26.8 103.2 49.6z"/><path clip-path="url(#a)" d="m4062.8 4017.5c-75.4 0-124.1 39.7-146.9 65.5v-55.6h-135v462.6h135v-303.7c16.9-23.8 48.6-52.6 99.3-52.6 56.6 0 89.3 36.7 89.3 97.3v259h136v-285.9c0-109.2-62.5-186.6-177.7-186.6"/><path clip-path="url(#a)" d="m2805.8 3897.4c45.7 0 72.5 19.9 72.5 19.9l21.8-103.2s-36.7-28.8-124.1-28.8c-113.2 0-183.6 65.5-183.6 187.6v54.6h-68.5v111.2h68.5v351.3h138v-351.4h156.8v-111.2h-156.8v-42.7c0-58.5 26.8-87.3 75.4-87.3"/><path clip-path="url(#a)" d="m2965.1 3795.2h138v694.8h-138z"/></g></svg>